<?xml version="1.0" encoding="UTF-8"?>
<svg xmlns="http://www.w3.org/2000/svg" xmlns:xlink="http://www.w3.org/1999/xlink" width="35px" height="44px" viewBox="0 0 35 44" version="1.1">
<g id="surface1">
<path style=" stroke:none;fill-rule:evenodd;fill:rgb(0.784314%,30.588235%,70.588235%);fill-opacity:1;" d="M 17.28125 -0.0078125 C 17.417969 -0.0078125 17.550781 -0.0078125 17.6875 -0.0078125 C 20.632812 0.546875 23.582031 1.097656 26.535156 1.648438 C 26.613281 1.679688 26.664062 1.734375 26.6875 1.816406 C 26.824219 2.433594 26.96875 3.046875 27.117188 3.660156 C 28.25 3.96875 29.386719 4.28125 30.519531 4.589844 C 30.546875 4.601562 30.574219 4.621094 30.59375 4.644531 C 30.773438 5.308594 30.9375 5.976562 31.085938 6.648438 C 32.183594 6.933594 33.28125 7.222656 34.375 7.515625 C 34.425781 7.523438 34.464844 7.546875 34.496094 7.585938 C 34.535156 7.648438 34.5625 7.710938 34.578125 7.78125 C 34.800781 8.972656 34.9375 10.175781 34.992188 11.382812 C 34.992188 12.039062 34.992188 12.699219 34.992188 13.355469 C 34.703125 21.199219 32.242188 28.273438 27.609375 34.570312 C 24.898438 38.207031 21.660156 41.28125 17.898438 43.789062 C 17.820312 43.882812 17.730469 43.949219 17.621094 43.992188 C 17.535156 43.992188 17.449219 43.992188 17.363281 43.992188 C 13.734375 41.59375 10.570312 38.671875 7.875 35.234375 C 3.886719 30.078125 1.390625 24.261719 0.390625 17.78125 C 0.175781 16.3125 0.0429688 14.835938 -0.0078125 13.355469 C -0.0078125 12.683594 -0.0078125 12.007812 -0.0078125 11.335938 C 0.0390625 10.191406 0.167969 9.054688 0.371094 7.925781 C 0.386719 7.796875 0.425781 7.679688 0.496094 7.570312 C 0.511719 7.558594 0.527344 7.542969 0.542969 7.53125 C 1.65625 7.230469 2.765625 6.9375 3.878906 6.648438 C 4.03125 5.976562 4.195312 5.308594 4.375 4.644531 C 4.441406 4.589844 4.519531 4.554688 4.609375 4.539062 C 5.691406 4.253906 6.773438 3.957031 7.851562 3.660156 C 8 3.046875 8.140625 2.433594 8.28125 1.816406 C 8.304688 1.734375 8.355469 1.679688 8.433594 1.648438 C 11.386719 1.101562 14.335938 0.546875 17.28125 -0.0078125 Z M 17.28125 -0.0078125 "/>
<path style=" stroke:none;fill-rule:evenodd;fill:rgb(99.607843%,99.607843%,99.607843%);fill-opacity:1;" d="M 16.015625 5.308594 C 16.089844 5.292969 16.144531 5.316406 16.1875 5.371094 C 16.199219 16.171875 16.199219 26.972656 16.1875 37.769531 C 16.15625 37.816406 16.117188 37.828125 16.066406 37.8125 C 15.191406 36.816406 14.410156 35.75 13.722656 34.621094 C 12.734375 32.957031 11.917969 31.210938 11.277344 29.382812 C 11.058594 28.757812 10.851562 28.128906 10.652344 27.492188 C 10.050781 27.871094 9.453125 28.25 8.855469 28.632812 C 8.6875 28.746094 8.503906 28.785156 8.304688 28.746094 C 8.109375 28.664062 7.960938 28.535156 7.859375 28.351562 C 7.023438 26.816406 6.34375 25.21875 5.816406 23.550781 C 4.667969 19.96875 4.007812 16.300781 3.832031 12.539062 C 3.832031 12.351562 3.886719 12.179688 4.003906 12.03125 C 4.65625 11.238281 5.367188 10.5 6.132812 9.808594 C 6.238281 9.773438 6.304688 9.808594 6.335938 9.914062 C 6.34375 12.179688 6.496094 14.4375 6.789062 16.683594 C 7.074219 18.878906 7.5625 21.027344 8.246094 23.132812 C 8.46875 23.785156 8.722656 24.425781 9.007812 25.054688 C 9.070312 25.167969 9.164062 25.210938 9.292969 25.175781 C 9.492188 25.050781 9.691406 24.925781 9.890625 24.804688 C 9.910156 24.757812 9.914062 24.714844 9.902344 24.667969 C 9.367188 22.160156 9 19.628906 8.796875 17.070312 C 8.558594 14.082031 8.480469 11.085938 8.554688 8.085938 C 8.578125 7.980469 8.636719 7.898438 8.726562 7.835938 C 9.441406 7.394531 10.183594 7.007812 10.960938 6.671875 C 11.039062 6.640625 11.109375 6.640625 11.179688 6.679688 C 11.199219 6.828125 11.207031 6.976562 11.203125 7.125 C 11.136719 10.734375 11.257812 14.335938 11.570312 17.929688 C 11.796875 20.492188 12.203125 23.03125 12.785156 25.539062 C 13.015625 26.46875 13.273438 27.390625 13.5625 28.300781 C 13.628906 28.371094 13.683594 28.359375 13.722656 28.269531 C 13.703125 27.570312 13.683594 26.871094 13.660156 26.167969 C 13.65625 25.707031 13.648438 25.242188 13.644531 24.777344 C 13.617188 18.484375 13.589844 12.1875 13.5625 5.890625 C 13.617188 5.777344 13.703125 5.714844 13.828125 5.703125 C 14.554688 5.53125 15.28125 5.398438 16.015625 5.308594 Z M 16.015625 5.308594 "/>
<path style=" stroke:none;fill-rule:evenodd;fill:rgb(99.607843%,99.607843%,99.607843%);fill-opacity:1;" d="M 18.835938 5.308594 C 20.386719 5.394531 21.90625 5.660156 23.390625 6.109375 C 24.488281 6.441406 25.507812 6.925781 26.453125 7.5625 C 27.226562 8.097656 27.855469 8.769531 28.339844 9.574219 C 28.925781 10.636719 29.113281 11.769531 28.90625 12.96875 C 28.707031 14.1875 28.203125 15.257812 27.390625 16.183594 C 28.929688 16.625 29.828125 17.632812 30.089844 19.203125 C 30.222656 20.25 30.167969 21.28125 29.929688 22.308594 C 29.574219 23.738281 29.046875 25.101562 28.339844 26.394531 C 27.507812 27.914062 26.5625 29.359375 25.503906 30.726562 C 24.234375 32.359375 22.867188 33.914062 21.40625 35.394531 C 20.601562 36.195312 19.789062 36.984375 18.964844 37.761719 C 18.929688 37.792969 18.890625 37.8125 18.84375 37.820312 C 18.816406 37.820312 18.796875 37.808594 18.78125 37.785156 C 18.777344 32.382812 18.773438 26.980469 18.773438 21.578125 C 18.773438 16.175781 18.777344 10.773438 18.78125 5.371094 C 18.800781 5.351562 18.820312 5.332031 18.835938 5.308594 Z M 18.835938 5.308594 "/>
<path style=" stroke:none;fill-rule:evenodd;fill:rgb(0.784314%,30.588235%,70.588235%);fill-opacity:1;" d="M 21.378906 8.347656 C 22.507812 8.398438 23.5625 8.703125 24.539062 9.257812 C 25.125 9.59375 25.59375 10.050781 25.941406 10.625 C 26.246094 11.152344 26.347656 11.71875 26.25 12.320312 C 26.160156 13.023438 25.925781 13.675781 25.554688 14.277344 C 25.195312 14.84375 24.773438 15.355469 24.28125 15.820312 C 23.398438 16.628906 22.4375 17.332031 21.398438 17.929688 C 21.378906 14.734375 21.375 11.539062 21.378906 8.347656 Z M 21.378906 8.347656 "/>
<path style=" stroke:none;fill-rule:evenodd;fill:rgb(0.784314%,30.588235%,70.588235%);fill-opacity:1;" d="M 25.546875 18.769531 C 26.367188 18.664062 26.925781 18.992188 27.222656 19.753906 C 27.367188 20.183594 27.417969 20.625 27.367188 21.078125 C 27.320312 21.601562 27.21875 22.113281 27.058594 22.613281 C 26.726562 23.625 26.292969 24.597656 25.765625 25.523438 C 25.050781 26.753906 24.257812 27.925781 23.382812 29.046875 C 22.742188 29.855469 22.078125 30.648438 21.390625 31.421875 C 21.375 27.960938 21.378906 24.503906 21.398438 21.046875 C 22.242188 20.429688 23.117188 19.855469 24.023438 19.324219 C 24.5 19.050781 25.007812 18.867188 25.546875 18.769531 Z M 25.546875 18.769531 "/>
</g>
</svg>
